<?xml version="1.0" encoding="UTF-8" standalone="no"?>
<!-- Created with Inkscape (http://www.inkscape.org/) -->

<svg
   xmlns:dc="http://purl.org/dc/elements/1.1/"
   xmlns:cc="http://creativecommons.org/ns#"
   xmlns:rdf="http://www.w3.org/1999/02/22-rdf-syntax-ns#"
   xmlns:svg="http://www.w3.org/2000/svg"
   xmlns="http://www.w3.org/2000/svg"
   xmlns:sodipodi="http://sodipodi.sourceforge.net/DTD/sodipodi-0.dtd"
   xmlns:inkscape="http://www.inkscape.org/namespaces/inkscape"
   width="256"
   height="256"
   viewBox="0 0 256 256"
   id="svg2"
   version="1.1"
   inkscape:version="0.91 r13725"
   sodipodi:docname="lliurex-abies2pmb.svg">
  <defs
     id="defs4" />
  <sodipodi:namedview
     id="base"
     pagecolor="#ffffff"
     bordercolor="#666666"
     borderopacity="1.0"
     inkscape:pageopacity="0.0"
     inkscape:pageshadow="2"
     inkscape:zoom="1.979899"
     inkscape:cx="-34.676351"
     inkscape:cy="107.36408"
     inkscape:document-units="px"
     inkscape:current-layer="g5401"
     showgrid="false"
     units="px"
     showguides="true"
     inkscape:guide-bbox="true"
     inkscape:snap-intersection-paths="false"
     inkscape:snap-midpoints="true"
     inkscape:window-width="1920"
     inkscape:window-height="926"
     inkscape:window-x="0"
     inkscape:window-y="24"
     inkscape:window-maximized="1">
    <sodipodi:guide
       position="128.92857,237.85714"
       orientation="0,1"
       id="guide4147" />
    <sodipodi:guide
       position="18.214286,162.14286"
       orientation="1,0"
       id="guide4149" />
    <sodipodi:guide
       position="237.85714,66.785714"
       orientation="1,0"
       id="guide4151" />
    <sodipodi:guide
       position="198.21429,17.5"
       orientation="0,1"
       id="guide4153" />
  </sodipodi:namedview>
  <metadata
     id="metadata7">
    <rdf:RDF>
      <cc:Work
         rdf:about="">
        <dc:format>image/svg+xml</dc:format>
        <dc:type
           rdf:resource="http://purl.org/dc/dcmitype/StillImage" />
        <dc:title />
      </cc:Work>
    </rdf:RDF>
  </metadata>
  <g
     inkscape:label="Capa 1"
     inkscape:groupmode="layer"
     id="layer1"
     transform="translate(0,-796.36216)">
    <g
       id="g23895"
       transform="matrix(0.74931131,0,0,0.74931131,16.396318,814.9967)">
      <g
         id="Capa_1-7">
        <linearGradient
           gradientTransform="matrix(0.9954,0,0,-0.9999,617.2666,2066.5017)"
           y2="2067.1211"
           x2="-469.80521"
           y1="1771.0918"
           x1="-469.80521"
           gradientUnits="userSpaceOnUse"
           id="rect3438-6-0-6-7-2_60_-1">
          <stop
             id="stop23807"
             style="stop-color:#000000"
             offset="0" />
          <stop
             id="stop23809"
             style="stop-color:#000000;stop-opacity:0.5882"
             offset="1" />
        </linearGradient>
        <path
           style="opacity:0.45;fill:url(#rect3438-6-0-6-7-2_60_-1)"
           d="m 71.221,-0.412 156.804,0 c 37.43,0 67.773,30.583 67.773,68.308 l 0,159.384 c 0,37.725 -30.343,68.308 -67.773,68.308 l -156.804,0 c -37.43,0 -67.773,-30.583 -67.773,-68.308 l 0,-159.384 C 3.447,30.17 33.791,-0.412 71.221,-0.412 Z"
           enable-background="new    "
           id="rect3438-6-0-6-7-2_10_"
           inkscape:connector-curvature="0" />
        <linearGradient
           gradientTransform="matrix(0.9867,0,0,-0.9918,623.54,2056.9424)"
           y2="2074.3652"
           x2="-480.30621"
           y1="1777.6816"
           x1="-480.30621"
           gradientUnits="userSpaceOnUse"
           id="rect3438-6-0-1-1_60_-04">
          <stop
             id="stop23813"
             style="stop-color:#000000"
             offset="0" />
          <stop
             id="stop23815"
             style="stop-color:#000000;stop-opacity:0.5882"
             offset="1" />
        </linearGradient>
        <path
           style="opacity:0.45;fill:url(#rect3438-6-0-1-1_60_-04)"
           d="m 71.946,-0.412 155.354,0 c 37.126,0 67.224,30.402 67.224,67.904 l 0,158.442 c 0,37.502 -30.098,67.904 -67.224,67.904 l -155.354,0 c -37.127,0 -67.224,-30.401 -67.224,-67.904 l 0,-158.442 c 0,-37.502 30.097,-67.904 67.224,-67.904 z"
           enable-background="new    "
           id="rect3438-6-0-1-1_10_"
           inkscape:connector-curvature="0" />
        <g
           id="rect3438-6_9_">
          <linearGradient
             gradientTransform="matrix(0.9996,0,0,-0.9996,-615.2544,1324.7201)"
             y2="1033.3828"
             x2="765.45612"
             y1="1325.7012"
             x1="765.45612"
             gradientUnits="userSpaceOnUse"
             id="XMLID_140_-37">
            <stop
               id="stop23820"
               style="stop-color:#f1f1f1;stop-opacity:1"
               offset="0.0866" />
            <stop
               id="stop23822"
               style="stop-color:#088569;stop-opacity:1"
               offset="0.9944" />
          </linearGradient>
          <path
             style="fill:url(#XMLID_140_-37)"
             d="m 71.226,-0.451 157.34,0 c 37.24,0 67.43,30.19 67.43,67.431 l 0,157.34 c 0,37.241 -30.19,67.432 -67.43,67.432 l -157.34,0 c -37.241,0 -67.431,-30.191 -67.431,-67.432 l 0,-157.34 C 3.794,29.739 33.984,-0.451 71.226,-0.451 Z"
             id="XMLID_560_"
             inkscape:connector-curvature="0" />
        </g>
      </g>
      <g
         display="none"
         id="Capa_2-02"
         style="display:none" />
      <g
         display="none"
         id="Capa_3-98"
         style="display:none" />
    </g>
  </g>
  <g
     id="g5401"
     style="opacity:0.7"
     transform="translate(-8.9898474,0)">
    <g
       id="g4178">
      <path
         style="opacity:1;fill:#000000;fill-opacity:1;stroke:#000000;stroke-width:2.37280607;stroke-miterlimit:4;stroke-dasharray:none;stroke-opacity:1"
         d="m 113.07051,209.53072 c 0,-0.63148 0.28485,-1.44387 0.65664,-1.87253 0.36111,-0.41639 0.74568,-1.03768 0.85457,-1.3807 0.40843,-1.28681 8.18958,-9.29498 9.0315,-9.29498 0.23727,0 0.58129,-0.28007 0.76456,-0.62253 0.18323,-0.34237 0.79084,-0.71395 1.35027,-0.82589 0.69674,-0.13927 1.12445,-0.48567 1.35779,-1.09943 0.43232,-1.13701 -0.072,-1.52308 -1.68472,-1.28882 -0.9899,0.14387 -18.15594,1.14059 -21.16195,1.22872 -1.01329,0.0293 -37.958737,-0.63721 -45.339588,-0.81846 -3.616346,-0.0891 -4.129655,-0.17847 -5.165492,-0.90282 -1.484487,-1.03801 -1.638766,-1.2816 -1.644888,-2.59761 -0.0059,-1.3706 0.790476,-2.61496 2.112295,-3.29851 1.074407,-0.55556 3.425953,-0.4987 9.380059,0.22668 3.059033,0.3727 14.073777,1.51804 18.995748,1.97518 5.016456,0.46596 12.60469,1.29708 16.163094,1.77034 2.131862,0.28357 7.139062,0.40424 15.329932,0.36962 11.48584,-0.0484 12.41476,-0.0987 16.66296,-0.8948 7.06411,-1.3241 8.61982,-1.77642 12.83049,-3.73049 2.34191,-1.08692 4.28954,-1.82177 4.82811,-1.82177 0.31774,0 1.13013,-0.37487 1.80534,-0.83318 0.67523,-0.45824 1.48353,-0.83638 1.79613,-0.84041 0.31262,-9e-4 1.22215,-0.30393 2.02116,-0.66656 0.79905,-0.36254 1.71607,-0.65927 2.0379,-0.65927 0.32186,0 0.96651,-0.29989 1.43256,-0.66653 0.46603,-0.36655 1.11373,-0.66657 1.43941,-0.66657 0.32559,0 1.20174,-0.28835 1.94697,-0.64091 0.74527,-0.35252 1.87984,-0.79128 2.52135,-0.97526 1.7126,-0.49091 5.11376,-1.76487 5.49874,-2.05969 0.34457,-0.26381 2.7097,-1.02198 5.73909,-1.83965 1.68698,-0.4553 2.75902,-0.3761 2.75902,0.20397 0,0.15526 -0.52018,0.38009 -1.15587,0.49931 -0.6358,0.11947 -1.45959,0.48025 -1.83072,0.80208 -0.37112,0.32189 -1.46311,0.67834 -2.42664,0.79209 -1.0603,0.1252 -2.78438,0.7354 -4.36764,1.54583 -1.43871,0.73643 -2.83974,1.33893 -3.11339,1.33893 -0.27368,0 -0.8789,0.29992 -1.3449,0.66655 -0.46607,0.36659 -1.1419,0.66647 -1.50189,0.66647 -0.36001,0 -1.12708,0.22198 -1.70468,0.4932 -0.57757,0.27131 -1.64999,0.69826 -2.38314,0.94896 l -1.33306,0.45578 -0.25563,6.29945 c -0.18209,4.48817 -0.39873,6.58689 -0.75353,7.29918 -0.27394,0.54992 -0.63372,2.44799 -0.7994,4.21792 -0.16574,1.76996 -0.52076,3.56955 -0.78878,3.99913 -0.26802,0.42955 -0.57992,1.28331 -0.69298,1.89727 -0.11306,0.61391 -0.58123,1.56277 -1.04037,2.10846 -0.45918,0.54567 -0.83489,1.13059 -0.83489,1.29981 0,0.16925 -0.74986,0.30767 -1.66632,0.30767 -1.27414,0 -1.66629,-0.12027 -1.66629,-0.51037 0,-0.28073 0.22887,-0.59821 0.50859,-0.70547 0.27973,-0.10749 0.91707,-1.03993 1.41637,-2.0724 0.89182,-1.84428 0.90697,-1.98269 0.86164,-7.87596 -0.0495,-6.4562 -0.36749,-8.41464 -1.47745,-9.10438 -0.38911,-0.24182 -0.76243,-0.38473 -0.82952,-0.31771 -0.19842,0.1985 -1.1452,12.5443 -1.1567,15.08418 -0.015,3.31918 -0.22718,3.51206 -4.21675,3.83636 -3.36333,0.27329 -5.1039,0.72488 -5.1039,1.32421 0,0.22703 -4.13385,0.34154 -12.33062,0.34154 l -12.3306,0 z M 46.418646,182.13278 c 0,-0.28576 0.152453,-0.42534 0.338683,-0.31026 0.186324,0.11532 0.25242,0.34892 0.146983,0.51961 -0.285721,0.46226 -0.485654,0.37608 -0.485654,-0.20935 z m 1.333042,-2.62671 c 0,-0.28576 0.149974,-0.5196 0.333285,-0.5196 0.183311,0 0.333284,0.14121 0.333284,0.31363 0,0.17251 -0.149961,0.40621 -0.333284,0.51958 -0.183252,0.11331 -0.333285,-0.0275 -0.333285,-0.31361 z m 2.832751,-3.18566 c 0.113183,-0.18323 0.272054,-0.33326 0.352908,-0.33326 0.08091,0 0.146983,0.14994 0.146983,0.33326 0,0.18328 -0.158752,0.33329 -0.352919,0.33329 -0.194131,0 -0.260249,-0.14994 -0.146972,-0.33329 z m 1.499637,-2.33282 c 0,-0.18325 0.158729,-0.33329 0.352967,-0.33329 0.194108,0 0.260202,0.14998 0.146984,0.33329 -0.113183,0.18329 -0.272101,0.33328 -0.352967,0.33328 -0.08091,0 -0.146984,-0.14994 -0.146984,-0.33328 z m 126.138654,0.0174 c -0.52767,-0.21297 -0.33143,-0.32094 0.94154,-0.51818 1.06195,-0.16439 1.7353,-0.12187 1.98285,0.12561 0.27763,0.27763 0.14845,0.3749 -0.49763,0.3749 -0.47991,0 -1.07227,0.0645 -1.31639,0.14328 -0.24407,0.0793 -0.74375,0.0226 -1.11034,-0.12561 z m -122.139538,-3.0169 c 0,-0.18325 0.149949,-0.33326 0.333261,-0.33326 0.183311,0 0.333296,0.14995 0.333296,0.33326 0,0.18329 -0.14995,0.33328 -0.333296,0.33328 -0.183264,0 -0.333261,-0.14995 -0.333261,-0.33328 z m 1.666291,-1.33302 c 0,-0.18328 0.158753,-0.33331 0.352991,-0.33331 0.194107,0 0.260178,0.14995 0.146983,0.33331 -0.113183,0.18328 -0.272125,0.33326 -0.35299,0.33326 -0.08091,0 -0.146984,-0.14995 -0.146984,-0.33326 z M 194.969,169.43436 c 0.22909,-0.0925 0.60398,-0.0925 0.8331,0 0.22909,0.0925 0.0418,0.16807 -0.41661,0.16807 -0.45819,0 -0.64565,-0.0758 -0.41657,-0.16807 z M 59.082526,168.32204 c 0,-0.18326 0.412393,-0.32269 0.91646,-0.30982 0.812093,0.0208 0.840602,0.0561 0.249987,0.30982 -0.910314,0.39112 -1.166447,0.39112 -1.166447,0 z m 140.690534,0.0587 c -0.58011,-0.39139 0.56392,-0.71499 2.54952,-0.72119 0.79108,-8.9e-4 1.76586,-0.18943 2.16621,-0.41534 0.64839,-0.36597 3.08028,-1.02197 7.05983,-1.90439 2.21201,-0.49051 12.0377,-0.82488 12.28901,-0.41818 0.34817,0.56329 -0.11591,0.68226 -4.15158,1.06416 -2.09279,0.1981 -4.47991,0.50001 -5.30471,0.67096 -6.92281,1.43492 -13.82862,2.2499 -14.60829,1.72398 z M 63.228933,165.62435 c -0.102743,-0.16611 0.197168,-0.302 0.666213,-0.302 1.021161,0 1.103627,0.18991 0.186668,0.42971 -0.366385,0.096 -0.750115,0.0386 -0.852822,-0.12775 z m 2.518805,-1.63505 c 0,-0.18327 0.224965,-0.33325 0.499903,-0.33325 0.274901,0 0.499926,0.14992 0.499926,0.33325 0,0.18327 -0.225025,0.33328 -0.499926,0.33328 -0.274938,0 -0.499903,-0.14994 -0.499903,-0.33328 z m 1.666279,-1.2126 c 0,-0.26182 0.352397,-0.45366 0.833104,-0.45366 0.458225,0 0.833187,0.13241 0.833187,0.29442 0,0.16174 -0.374879,0.36604 -0.833187,0.45367 -0.558689,0.10689 -0.833104,0.0107 -0.833104,-0.29445 z m 2.666097,-1.45347 c 0,-0.18328 0.308785,-0.33327 0.686109,-0.33327 0.377442,0 0.593498,0.14996 0.480244,0.33327 -0.113302,0.18326 -0.422039,0.33328 -0.686216,0.33328 -0.264164,0 -0.480256,-0.14995 -0.480256,-0.33328 z m 1.666267,-1.29418 c 0,-0.3901 1.519272,-0.66899 2.005947,-0.36817 0.261898,0.16176 0.207419,0.30388 -0.172372,0.44958 -0.801403,0.30747 -1.833586,0.26163 -1.833586,-0.0816 z m 2.487128,-1.05854 c -0.268364,-0.43416 0.120812,-0.97987 0.698542,-0.97987 0.264046,0 0.780108,-0.2999 1.146718,-0.66655 0.366539,-0.36657 1.041449,-0.66654 1.499661,-0.66654 0.515053,0 0.833128,-0.18908 0.833128,-0.49539 0,-0.2725 0.506547,-0.7071 1.125718,-0.9658 0.619137,-0.25868 1.227856,-0.6356 1.352713,-0.83763 0.124941,-0.20196 0.512776,-0.36724 0.862088,-0.36724 0.349337,0 0.786277,-0.28248 0.971095,-0.62769 0.18477,-0.34532 0.864888,-0.72704 1.511383,-0.84828 0.646471,-0.12121 1.180921,-0.40119 1.187589,-0.622 0.01495,-0.46585 2.683762,-2.23438 3.372933,-2.23438 0.256263,0 0.722708,-0.2999 1.036596,-0.66655 0.313851,-0.36659 0.961093,-0.66657 1.438288,-0.66657 0.587352,0 0.9239,-0.21528 1.041899,-0.66654 0.116505,-0.44508 0.454594,-0.66656 1.018254,-0.66656 0.903695,0 3.07742,-1.94813 3.07742,-2.75807 0,-0.998 -1.465027,-1.82039 -3.559918,-1.9984 -1.133133,-0.0965 -2.227661,-0.27853 -2.43228,-0.40506 -0.548,-0.33866 0.282838,-1.22715 0.957047,-1.02346 0.294869,0.0893 1.863934,0.32359 3.486779,0.52108 3.473726,0.42281 5.408938,1.2145 5.321288,2.177 -0.0329,0.35986 -0.308912,0.80422 -0.613612,0.98746 -0.30467,0.18328 -1.327633,0.83388 -2.273223,1.44556 -0.945561,0.61172 -2.319075,1.40825 -3.052236,1.76997 -2.220081,1.09527 -3.398582,1.80174 -3.986837,2.39 -0.307907,0.30789 -0.763308,0.55978 -1.012073,0.55978 -0.248788,0 -0.651667,0.19944 -0.89533,0.44308 -0.43216,0.43214 -1.226373,0.90003 -3.603652,2.12293 -0.6415,0.33 -1.286346,0.78744 -1.432914,1.01653 -0.146545,0.22913 -0.559045,0.41662 -0.916496,0.41662 -0.357464,0 -0.924956,0.26245 -1.261099,0.58321 -0.693726,0.66194 -2.049488,1.49973 -3.637892,2.24806 -0.595681,0.28066 -1.083079,0.64353 -1.083079,0.80647 0,0.44535 -1.947457,1.04854 -2.178509,0.6748 z m 5.190347,-18.22853 c -2.624584,-0.08 -3.633217,-0.2382 -4.079067,-0.64175 -0.327388,-0.29621 -1.376512,-0.59711 -2.345293,-0.67254 -2.89143,-0.22513 -3.252667,-0.36229 -3.252667,-1.23481 0,-0.49161 0.390185,-1.08629 1.034379,-1.57666 0.568916,-0.43307 1.415627,-1.12474 1.881598,-1.53713 0.465937,-0.41241 1.062033,-0.74991 1.324619,-0.74991 0.262575,0 1.552883,-0.87462 2.86737,-1.94368 1.314476,-1.06898 3.283181,-2.4306 4.375004,-3.02581 1.091787,-0.59515 2.516468,-1.49262 3.165964,-1.99415 0.649461,-0.50161 1.930693,-1.3328 2.847177,-1.84711 0.916437,-0.51427 2.716081,-1.61623 3.999104,-2.4487 1.283047,-0.83253 2.932693,-1.90148 3.665843,-2.37547 4.867541,-3.14688 5.153223,-5.01196 0.771736,-5.03815 -0.986475,-0.006 -2.044201,-0.21726 -2.386846,-0.47681 -0.338421,-0.25643 -1.600944,-0.57172 -2.80557,-0.70076 -1.463428,-0.15661 -2.842301,-0.57911 -4.155353,-1.2728 -1.080813,-0.57106 -2.391302,-1.26322 -2.912157,-1.53814 -1.470392,-0.77621 -2.062265,-3.32841 -1.321617,-5.69903 0.369683,-1.18316 1.903904,-4.42525 2.478764,-5.23807 1.002783,-1.417813 6.298732,-6.413654 7.931709,-7.482223 1.044675,-0.683629 2.702294,-1.76785 3.68356,-2.409374 0.98123,-0.6415 1.937662,-1.166424 2.125375,-1.166424 0.18774,0 0.51991,-0.215296 0.73835,-0.478488 0.21841,-0.263132 0.81494,-0.570173 1.325632,-0.682443 5.87462,-3.477086 8.32847,-7.908277 13.66999,-13.700997 1.20175,-1.300583 3.23477,-3.541354 4.51781,-4.979488 4.27805,-4.795192 17.31867,-17.743974 18.10763,-17.980128 0.44578,-0.133351 0.9233,-0.649413 1.11808,-1.208114 0.24686,-0.708009 0.83966,-1.219883 2.16388,-1.868288 1.19084,-0.58307 2.00457,-1.245865 2.34432,-1.909397 0.66867,-1.305814 0.99595,-1.504857 2.4847,-1.511062 1.14041,-0.0047 2.10354,0.551535 3.88188,2.242278 0.2422,0.230293 0.61709,0.419548 0.83307,0.420627 0.21604,9.85e-4 1.51754,1.060265 2.89223,2.353788 1.37469,1.293524 2.94932,2.56021 3.49923,2.81486 0.54986,0.254661 2.31561,1.669874 3.92391,3.144988 1.60827,1.475091 3.08755,2.682007 3.28731,2.682007 0.45902,0 3.94707,3.00574 5.87381,5.06148 0.80526,0.859264 1.88216,1.654083 2.39298,1.766281 0.53456,0.117335 1.90266,1.187471 3.22309,2.521071 1.26184,1.274387 2.89409,2.602233 3.62727,2.95075 0.73313,0.348483 2.53275,1.771561 3.99912,3.162286 1.46631,1.390761 2.89102,2.532425 3.16592,2.537064 0.27495,0.0047 1.84961,1.276582 3.49926,2.82657 1.64961,1.549988 3.22427,2.82492 3.49921,2.833201 0.27495,0.0083 1.6996,1.148806 3.16593,2.534549 1.46637,1.385718 3.28694,2.795236 4.04575,3.13221 0.7588,0.336974 1.47999,0.775101 1.60262,0.973539 0.1227,0.198497 0.4871,0.360856 0.80984,0.360856 0.32277,0 1.08055,0.440808 1.68397,0.979542 0.60339,0.538734 1.6427,1.235698 2.30952,1.548885 0.66679,0.313153 1.57,0.84713 2.00717,1.186666 0.43709,0.339454 1.04832,0.617262 1.35825,0.617262 0.3099,0 0.89754,0.35566 1.30588,0.790209 0.40827,0.434686 1.29676,1.070693 1.97434,1.413397 0.67756,0.342681 1.83179,1.086033 2.56495,1.65177 0.73316,0.565772 1.78297,1.251845 2.3328,1.524646 0.54989,0.272837 1.29973,0.662604 1.66632,0.866234 0.36656,0.20365 0.92899,0.45149 1.24972,0.55079 0.82287,0.25467 0.72466,1.42936 -0.16669,1.99461 -0.41238,0.26157 -1.40648,0.5814 -2.20905,0.7108 -0.8026,0.12935 -1.92731,0.50453 -2.49945,0.83377 -0.57214,0.32917 -2.91479,0.91986 -5.20596,1.31262 -5.08376,0.87138 -6.24075,1.22183 -6.66774,2.01965 -0.18188,0.33984 -0.33064,0.69336 -0.33064,0.7856 0,0.0923 1.01223,0.6379 2.24946,1.21256 1.23723,0.57465 2.77438,1.3151 3.41591,1.64539 0.64149,0.33024 1.68636,0.71338 2.32189,0.85127 0.63551,0.13792 1.38535,0.37901 1.66628,0.53563 0.281,0.1566 1.78553,0.86965 3.34353,1.58438 1.55798,0.71477 3.11839,1.61731 3.46755,2.00563 0.63084,0.70158 0.62915,0.70607 -0.26037,0.70607 -0.49236,0 -0.97591,-0.2102 -1.07453,-0.46714 -0.0988,-0.25695 -0.71409,-0.56749 -1.36776,-0.69007 -0.6537,-0.12267 -1.72836,-0.51228 -2.3881,-0.86592 -0.65976,-0.35363 -1.50398,-0.64295 -1.876,-0.64295 -0.37204,0 -1.23597,-0.29989 -1.91997,-0.66652 -0.68395,-0.3666 -1.54461,-0.66658 -1.91249,-0.66658 -0.36794,0 -1.2286,-0.2999 -1.91252,-0.66654 -0.68396,-0.36658 -1.71259,-0.66655 -2.2858,-0.66655 -0.66251,0 -1.51328,-0.3744 -2.33527,-1.02761 -1.61182,-1.28094 -1.78645,-1.5566 -1.79282,-2.83011 -0.0107,-1.98824 2.02102,-3.0037 8.30936,-4.15472 6.89212,-1.26156 7.32235,-1.40151 7.34363,-2.38893 0.012,-0.49809 -1.54075,-1.639658 -3.76135,-2.767809 -1.27,-0.645177 -2.68694,-1.470261 -3.14872,-1.833538 -0.46182,-0.363312 -1.04438,-0.660518 -1.29464,-0.660518 -0.25018,0 -0.4549,-0.131691 -0.4549,-0.292828 0,-0.160912 -0.48743,-0.486093 -1.08313,-0.722365 -0.59566,-0.236272 -1.28838,-0.591913 -1.53932,-0.790221 -0.50127,-0.396341 -4.38672,-2.617504 -5.70903,-3.263631 -0.92535,-0.452173 -2.81798,-1.782487 -3.81175,-2.679194 -0.35551,-0.320744 -0.78194,-0.583236 -0.94761,-0.583236 -0.3024,0 -1.04275,-0.540668 -6.18399,-4.516529 -1.52811,-1.181765 -2.90258,-2.148648 -3.05435,-2.148648 -0.30111,0 -1.74806,-1.156244 -2.60641,-2.082872 -0.29715,-0.320756 -0.67466,-0.583236 -0.83874,-0.583236 -0.16408,0 -0.84321,-0.455093 -1.50889,-1.011373 -1.72348,-1.440044 -1.82939,-1.517315 -2.73111,-1.992766 -0.44669,-0.235513 -0.88714,-0.518244 -0.97876,-0.628307 -0.31295,-0.375734 -2.95979,-2.366233 -3.14645,-2.366233 -0.1025,0 -0.44862,-0.236759 -0.76934,-0.526146 -1.2352,-1.114329 -4.51154,-3.472958 -4.82427,-3.472958 -0.18057,0 -0.79991,-0.381286 -1.37624,-0.84727 -0.57634,-0.466042 -1.34783,-1.069981 -1.71446,-1.342166 -0.3665,-0.27216 -1.55501,-1.16564 -2.64098,-1.985433 -1.08598,-0.819816 -2.10431,-1.490538 -2.26301,-1.490538 -0.37488,0 -2.35636,-1.389823 -2.66975,-1.872535 -0.13322,-0.20507 -0.69547,-0.560718 -1.24971,-0.790239 -0.55424,-0.229522 -1.00769,-0.552876 -1.00769,-0.718427 0,-0.165657 -0.33736,-0.44795 -0.74983,-0.62737 -0.41241,-0.179502 -1.42472,-0.840673 -2.24954,-1.469289 -0.8248,-0.628639 -1.61656,-1.152922 -1.75941,-1.165095 -0.14282,-0.01329 -1.04266,-0.643517 -1.99957,-1.402945 -1.63376,-1.296679 -3.45904,-2.285036 -4.21993,-2.285036 -0.18448,0 -0.55376,0.412394 -0.82062,0.916461 -0.59146,1.117235 -1.4212,1.933243 -4.06317,3.995852 -5.36618,4.189451 -7.59196,6.372041 -19.13019,18.758931 -5.98726,6.427694 -11.22806,11.576742 -12.04623,11.835449 -0.8601,0.27196 -2.45485,1.413967 -4.22253,3.023869 -0.62737,0.571383 -2.09752,1.515075 -3.26691,2.097065 -1.169402,0.581966 -2.126192,1.201755 -2.126192,1.377224 0,0.175462 -0.15476,0.319076 -0.344023,0.319076 -0.18918,0 -1.368362,0.674885 -2.620332,1.499637 -1.252015,0.824799 -2.42672,1.499708 -2.610554,1.499708 -0.577564,0 -4.883578,4.415319 -6.188942,6.346099 -2.366411,3.50012 -2.268676,5.40252 0.367156,7.14684 1.089628,0.72113 1.82699,0.86763 5.792269,1.151 6.575716,0.4699 8.000958,0.86435 8.815588,2.43968 0.85191,1.6474 0.34907,3.06576 -1.926892,5.43596 -1.09852,1.144 -2.436743,2.26202 -2.973815,2.48446 -0.53711,0.22249 -0.97656,0.52464 -0.97656,0.67153 0,0.14681 -0.531928,0.44258 -1.182136,0.65713 -0.650149,0.21456 -2.619258,1.35098 -4.375656,2.52533 -1.756423,1.17431 -3.335893,2.13509 -3.509867,2.13509 -0.293694,0 -4.51927,2.60483 -8.443393,5.20496 -0.924683,0.61269 -2.166491,1.28317 -2.759526,1.48985 -1.269475,0.4426 -2.281785,2.03737 -1.632408,2.57176 0.224314,0.18454 1.15761,0.43315 2.074082,0.55246 3.290857,0.42827 10.690619,1.55247 11.997335,1.82264 1.14915,0.23762 0.957546,0.28117 -1.389088,0.31564 -1.49717,0.0218 -2.921862,0.0826 -3.166,0.13335 -0.244055,0.0511 -2.01284,0.0452 -3.93053,-0.0133 z M 213.5482,137.66186 c 0.11318,-0.1833 0.27207,-0.33328 0.35294,-0.33328 0.0809,0 0.14697,0.14995 0.14697,0.33328 0,0.18328 -0.15875,0.33329 -0.35294,0.33329 -0.19416,0 -0.26019,-0.14997 -0.14697,-0.33329 z m 6.49854,-8.33151 c -0.40214,-0.25987 -0.34939,-0.32398 0.26966,-0.3281 0.4291,-0.001 0.67839,0.14236 0.56354,0.3281 -0.24768,0.4007 -0.21304,0.4007 -0.83313,0 z m -5.54791,-1.56158 c 0.24103,-0.24104 3.2596,-0.17128 3.51205,0.0816 0.0809,0.0809 -0.72741,0.14742 -1.79663,0.14742 -1.0692,0 -1.84116,-0.10286 -1.71542,-0.2286 z m -4.53319,-1.00988 c -0.50404,-0.0765 -0.91646,-0.27879 -0.91646,-0.44998 0,-0.36211 1.76066,-0.40886 3.35863,-0.0895 0.93926,0.18781 1.00947,0.2608 0.45825,0.47646 -0.69271,0.27097 -1.42188,0.28677 -2.90046,0.0629 z m -4.74892,-1.4061 c -1.35811,-0.23032 -3.7143,-1.22699 -4.00235,-1.69302 -0.49923,-0.80771 5.55082,-1.99832 10.10843,-1.98921 4.79524,0.0107 4.3619,1.14493 -0.53849,1.41098 -1.70348,0.0927 -3.17762,0.2486 -3.27595,0.3469 -0.0982,0.0986 0.0759,0.56666 0.38608,1.0408 0.4922,0.75114 0.49907,0.86209 0.0536,0.86209 -0.28106,0 -0.71067,0.0552 -0.95479,0.12374 -0.24413,0.0681 -1.04367,0.0218 -1.77685,-0.10251 z m 13.67572,-4.32333 c -0.47109,-0.18421 -0.12348,-0.31067 1.24114,-0.45148 1.04256,-0.10773 2.0494,-0.29074 2.23742,-0.40694 0.57204,-0.35353 0.39531,-1.77539 -0.24138,-1.94172 -0.45285,-0.11841 -0.42092,-0.16109 0.14282,-0.19105 0.8023,-0.0427 1.77341,0.7571 1.77341,1.46062 0,0.24851 -0.39517,0.7627 -0.87812,1.14262 -0.9054,0.7122 -2.96744,0.89933 -4.27529,0.38802 z"
         id="path4285-5"
         inkscape:connector-curvature="0"
         sodipodi:nodetypes="scssccsccsssssssssssscssssccccsscscssscccssscsssssccsscsssscssccsssscssssssssssscccsccssssssssssccscsccscccscssccsscsssssssscsssssssccscssssssssscssscsscccccsccssscssccsccccsssscscscsccsssssssssccssssscscssssssssssscssssssssssssssssssssssssscscsssssssssscsssssssssssssssssssssssssssscssssssssssssssssccscsssccssssccsssssccccscsscscsccccccssccsscccsss" />
      <path
         style="opacity:0.5;fill:#000000;fill-opacity:1;stroke:#000000;stroke-width:2.37280607;stroke-miterlimit:4;stroke-dasharray:none;stroke-opacity:1"
         d="m 115.15715,209.53073 c 0,-0.63148 0.28485,-1.44387 0.65664,-1.87253 0.36111,-0.41639 0.74568,-1.03768 0.85457,-1.3807 0.40843,-1.28681 8.18958,-9.29498 9.0315,-9.29498 0.23727,0 0.58129,-0.28007 0.76456,-0.62253 0.18323,-0.34237 0.79084,-0.71395 1.35027,-0.82589 0.69674,-0.13927 1.12445,-0.48567 1.35779,-1.09943 0.43232,-1.13701 -0.072,-1.52308 -1.68472,-1.28882 -0.9899,0.14387 -18.15594,1.14059 -21.16195,1.22872 -1.01329,0.0293 -37.958682,-0.63721 -45.339532,-0.81846 -3.61635,-0.0891 -4.12966,-0.17847 -5.16549,-0.90282 -1.48449,-1.03801 -1.63877,-1.2816 -1.64489,-2.59761 -0.006,-1.3706 0.79047,-2.61496 2.11229,-3.29851 1.07441,-0.55556 3.42596,-0.4987 9.38006,0.22668 3.05903,0.3727 14.07378,1.51804 18.99575,1.97518 5.016428,0.46596 12.604608,1.29708 16.163042,1.77034 2.13186,0.28357 7.13906,0.40424 15.32993,0.36962 11.48584,-0.0484 12.41476,-0.0987 16.66296,-0.8948 7.06411,-1.3241 8.61982,-1.77642 12.83049,-3.73049 2.34191,-1.08692 4.28954,-1.82177 4.82811,-1.82177 0.31774,0 1.13013,-0.37487 1.80534,-0.83318 0.67523,-0.45824 1.48353,-0.83638 1.79613,-0.84041 0.31262,-9e-4 1.22215,-0.30393 2.02116,-0.66656 0.79905,-0.36254 1.71607,-0.65927 2.0379,-0.65927 0.32186,0 0.96651,-0.29989 1.43256,-0.66653 0.46603,-0.36655 1.11373,-0.66657 1.43941,-0.66657 0.32559,0 1.20174,-0.28835 1.94697,-0.64091 0.74527,-0.35252 1.87984,-0.79128 2.52135,-0.97526 1.7126,-0.49091 5.11376,-1.76487 5.49874,-2.05969 0.34457,-0.26381 2.7097,-1.02198 5.73909,-1.83965 1.68698,-0.4553 2.75902,-0.3761 2.75902,0.20397 0,0.15526 -0.52018,0.38009 -1.15587,0.49931 -0.6358,0.11947 -1.45959,0.48025 -1.83072,0.80208 -0.37112,0.32189 -1.46311,0.67834 -2.42664,0.79209 -1.0603,0.1252 -2.78438,0.7354 -4.36764,1.54583 -1.43871,0.73643 -2.83974,1.33893 -3.11339,1.33893 -0.27368,0 -0.8789,0.29992 -1.3449,0.66655 -0.46607,0.36659 -1.1419,0.66647 -1.50189,0.66647 -0.36001,0 -1.12708,0.22198 -1.70468,0.4932 -0.57757,0.27131 -1.64999,0.69826 -2.38314,0.94896 l -1.33306,0.45578 -0.25563,6.29945 c -0.18209,4.48817 -0.39873,6.58689 -0.75353,7.29918 -0.27394,0.54992 -0.63372,2.44799 -0.7994,4.21792 -0.16574,1.76996 -0.52076,3.56955 -0.78878,3.99913 -0.26802,0.42955 -0.57992,1.28331 -0.69298,1.89727 -0.11306,0.61391 -0.58123,1.56277 -1.04037,2.10846 -0.45918,0.54567 -0.83489,1.13059 -0.83489,1.29981 0,0.16925 -0.74986,0.30767 -1.66632,0.30767 -1.27414,0 -1.66629,-0.12027 -1.66629,-0.51037 0,-0.28073 0.22887,-0.59821 0.50859,-0.70547 0.27973,-0.10749 0.91707,-1.03993 1.41637,-2.0724 0.89182,-1.84428 0.90697,-1.98269 0.86164,-7.87596 -0.0495,-6.4562 -0.36749,-8.41464 -1.47745,-9.10438 -0.38911,-0.24182 -0.76243,-0.38473 -0.82952,-0.31771 -0.19842,0.1985 -1.1452,12.5443 -1.1567,15.08418 -0.015,3.31918 -0.22718,3.51206 -4.21675,3.83636 -3.36333,0.27329 -5.1039,0.72488 -5.1039,1.32421 0,0.22703 -4.13385,0.34154 -12.33062,0.34154 l -12.3306,0 z M 48.505338,182.13279 c 0,-0.28576 0.15245,-0.42534 0.33868,-0.31026 0.18633,0.11532 0.25242,0.34892 0.14699,0.51961 -0.28572,0.46226 -0.48566,0.37608 -0.48566,-0.20935 z m 1.33304,-2.62671 c 0,-0.28576 0.14998,-0.5196 0.33329,-0.5196 0.18331,0 0.33328,0.14121 0.33328,0.31363 0,0.17251 -0.14996,0.40621 -0.33328,0.51958 -0.18325,0.11331 -0.33329,-0.0275 -0.33329,-0.31361 z m 2.83275,-3.18566 c 0.11319,-0.18323 0.27206,-0.33326 0.35291,-0.33326 0.0809,0 0.14699,0.14994 0.14699,0.33326 0,0.18328 -0.15876,0.33329 -0.35292,0.33329 -0.19413,0 -0.26025,-0.14994 -0.14698,-0.33329 z m 1.49964,-2.33282 c 0,-0.18325 0.15873,-0.33329 0.35297,-0.33329 0.19411,0 0.2602,0.14998 0.14698,0.33329 -0.11318,0.18329 -0.2721,0.33328 -0.35296,0.33328 -0.0809,0 -0.14699,-0.14994 -0.14699,-0.33328 z m 126.138602,0.0174 c -0.52767,-0.21297 -0.33143,-0.32094 0.94154,-0.51818 1.06195,-0.16439 1.7353,-0.12187 1.98285,0.12561 0.27763,0.27763 0.14845,0.3749 -0.49763,0.3749 -0.47991,0 -1.07227,0.0645 -1.31639,0.14328 -0.24407,0.0793 -0.74375,0.0226 -1.11034,-0.12561 z M 58.169888,170.9881 c 0,-0.18325 0.14995,-0.33326 0.33326,-0.33326 0.18331,0 0.33329,0.14995 0.33329,0.33326 0,0.18329 -0.14995,0.33328 -0.33329,0.33328 -0.18327,0 -0.33326,-0.14995 -0.33326,-0.33328 z m 1.66629,-1.33302 c 0,-0.18328 0.15875,-0.33331 0.35299,-0.33331 0.19411,0 0.26018,0.14995 0.14698,0.33331 -0.11318,0.18328 -0.27212,0.33326 -0.35299,0.33326 -0.0809,0 -0.14698,-0.14995 -0.14698,-0.33326 z m 137.219462,-0.22071 c 0.22909,-0.0925 0.60398,-0.0925 0.8331,0 0.22909,0.0925 0.0418,0.16807 -0.41661,0.16807 -0.45819,0 -0.64565,-0.0758 -0.41657,-0.16807 z M 61.169218,168.32205 c 0,-0.18326 0.41239,-0.32269 0.91646,-0.30982 0.81209,0.0208 0.8406,0.0561 0.24999,0.30982 -0.91032,0.39112 -1.16645,0.39112 -1.16645,0 z m 140.690482,0.0587 c -0.58011,-0.39139 0.56392,-0.71499 2.54952,-0.72119 0.79108,-8.9e-4 1.76586,-0.18943 2.16621,-0.41534 0.64839,-0.36597 3.08028,-1.02197 7.05983,-1.90439 2.21201,-0.49051 12.0377,-0.82488 12.28901,-0.41818 0.34817,0.56329 -0.11591,0.68226 -4.15158,1.06416 -2.09279,0.1981 -4.47991,0.50001 -5.30471,0.67096 -6.92281,1.43492 -13.82862,2.2499 -14.60829,1.72398 z M 65.315628,165.62436 c -0.10274,-0.16611 0.19717,-0.302 0.66621,-0.302 1.02116,0 1.10363,0.18991 0.18667,0.42971 -0.36639,0.096 -0.75012,0.0386 -0.85282,-0.12775 z m 2.5188,-1.63505 c 0,-0.18327 0.22497,-0.33325 0.49991,-0.33325 0.2749,0 0.49992,0.14992 0.49992,0.33325 0,0.18327 -0.22502,0.33328 -0.49992,0.33328 -0.27494,0 -0.49991,-0.14994 -0.49991,-0.33328 z m 1.66628,-1.2126 c 0,-0.26182 0.3524,-0.45366 0.83311,-0.45366 0.45822,0 0.83318,0.13241 0.83318,0.29442 0,0.16174 -0.37488,0.36604 -0.83318,0.45367 -0.55869,0.10689 -0.83311,0.0107 -0.83311,-0.29445 z m 2.6661,-1.45347 c 0,-0.18328 0.30878,-0.33327 0.68611,-0.33327 0.37744,0 0.5935,0.14996 0.48024,0.33327 -0.1133,0.18326 -0.42204,0.33328 -0.68621,0.33328 -0.26417,0 -0.48026,-0.14995 -0.48026,-0.33328 z m 1.66627,-1.29418 c 0,-0.3901 1.51927,-0.66899 2.00594,-0.36817 0.2619,0.16176 0.20742,0.30388 -0.17237,0.44958 -0.8014,0.30747 -1.83358,0.26163 -1.83358,-0.0816 z m 2.48712,-1.05854 c -0.26836,-0.43416 0.12082,-0.97987 0.69855,-0.97987 0.26404,0 0.7801,-0.2999 1.14671,-0.66655 0.36654,-0.36657 1.04145,-0.66654 1.49967,-0.66654 0.51505,0 0.83312,-0.18908 0.83312,-0.49539 0,-0.2725 0.50655,-0.7071 1.12572,-0.9658 0.61914,-0.25868 1.22786,-0.6356 1.35272,-0.83763 0.12494,-0.20196 0.51277,-0.36724 0.86208,-0.36724 0.34934,0 0.78628,-0.28248 0.9711,-0.62769 0.18477,-0.34532 0.86489,-0.72704 1.511376,-0.84828 0.646466,-0.12121 1.180912,-0.40119 1.187582,-0.622 0.0149,-0.46585 2.683736,-2.23438 3.372902,-2.23438 0.25627,0 0.722706,-0.2999 1.036592,-0.66655 0.313846,-0.36659 0.961082,-0.66657 1.438278,-0.66657 0.587346,0 0.923892,-0.21528 1.041892,-0.66654 0.1165,-0.44508 0.454586,-0.66656 1.018242,-0.66656 0.903696,0 3.077424,-1.94813 3.077424,-2.75807 0,-0.998 -1.46504,-1.82039 -3.55992,-1.9984 -1.133122,-0.0965 -2.227644,-0.27853 -2.43226,-0.40506 -0.547996,-0.33866 0.282836,-1.22715 0.957042,-1.02346 0.294866,0.0893 1.863914,0.32359 3.486758,0.52108 3.473754,0.42281 5.408964,1.2145 5.321314,2.177 -0.0329,0.35986 -0.30891,0.80422 -0.61361,0.98746 -0.30467,0.18328 -1.32764,0.83388 -2.273236,1.44556 -0.945568,0.61172 -2.319088,1.40825 -3.052246,1.76997 -2.220064,1.09527 -3.398566,1.80174 -3.986812,2.39 -0.307906,0.30789 -0.763302,0.55978 -1.012062,0.55978 -0.248786,0 -0.651662,0.19944 -0.895322,0.44308 -0.432156,0.43214 -1.226372,0.90003 -3.603632,2.12293 -0.641496,0.33 -1.286332,0.78744 -1.432902,1.01653 -0.14654,0.22913 -0.55904,0.41662 -0.9165,0.41662 -0.35746,0 -0.92495,0.26245 -1.26109,0.58321 -0.69373,0.66194 -2.04949,1.49973 -3.6379,2.24806 -0.59568,0.28066 -1.08308,0.64353 -1.08308,0.80647 0,0.44535 -1.94745,1.04854 -2.17851,0.6748 z m 5.19035,-18.22853 c -2.62458,-0.08 -3.63322,-0.2382 -4.07907,-0.64175 -0.32738,-0.29621 -1.37651,-0.59711 -2.34529,-0.67254 -2.89143,-0.22513 -3.25267,-0.36229 -3.25267,-1.23481 0,-0.49161 0.39019,-1.08629 1.03438,-1.57666 0.56892,-0.43307 1.41563,-1.12474 1.8816,-1.53713 0.46594,-0.41241 1.06203,-0.74991 1.32462,-0.74991 0.26258,0 1.55288,-0.87462 2.86737,-1.94368 1.31448,-1.06898 3.28318,-2.4306 4.37501,-3.02581 1.09178,-0.59515 2.51646,-1.49262 3.165956,-1.99415 0.649456,-0.50161 1.930674,-1.3328 2.847156,-1.84711 0.916422,-0.51427 2.71606,-1.61623 3.999068,-2.4487 1.283042,-0.83253 2.93267,-1.90148 3.665818,-2.37547 4.867574,-3.14688 5.153254,-5.01196 0.77175,-5.03815 -0.986478,-0.006 -2.044204,-0.21726 -2.386854,-0.47681 -0.338416,-0.25643 -1.600928,-0.57172 -2.805546,-0.70076 -1.463408,-0.15661 -2.84228,-0.57911 -4.155318,-1.2728 -1.080802,-0.57106 -2.39128,-1.26322 -2.91214,-1.53814 -1.47039,-0.77621 -2.06226,-3.32841 -1.32161,-5.69903 0.36968,-1.18316 1.9039,-4.42525 2.478752,-5.23808 1.002772,-1.417808 6.298682,-6.413663 7.93165,-7.482223 1.044672,-0.68363 2.702276,-1.76785 3.683556,-2.40938 0.981235,-0.6415 1.937674,-1.16642 2.125394,-1.16642 0.18774,0 0.51991,-0.2153 0.73835,-0.47849 0.21841,-0.26313 0.81494,-0.57017 1.32563,-0.68244 5.87462,-3.47709 8.32847,-7.90828 13.66999,-13.701 1.20175,-1.30058 3.23477,-3.54135 4.51781,-4.97949 4.27805,-4.79519 17.31867,-17.74397 18.10763,-17.98013 0.44578,-0.13335 0.9233,-0.64941 1.11808,-1.20811 0.24686,-0.70801 0.83966,-1.21988 2.16388,-1.86829 1.19084,-0.58307 2.00457,-1.24586 2.34432,-1.9094 0.66867,-1.30581 0.99595,-1.50485 2.4847,-1.51106 1.14041,-0.005 2.10354,0.55154 3.88188,2.24228 0.2422,0.23029 0.61709,0.41955 0.83307,0.42063 0.21604,9.8e-4 1.51754,1.06026 2.89223,2.35379 1.37469,1.29352 2.94932,2.56021 3.49923,2.81486 0.54986,0.25466 2.31561,1.66987 3.92391,3.14498 1.60827,1.47509 3.08755,2.68201 3.28731,2.68201 0.45902,0 3.94707,3.00574 5.87381,5.06148 0.80526,0.85926 1.88216,1.65408 2.39298,1.76628 0.53456,0.11734 1.90266,1.18747 3.22309,2.52107 1.26184,1.27439 2.89409,2.60224 3.62727,2.95075 0.73313,0.34849 2.53275,1.77156 3.99912,3.16229 1.46631,1.39076 2.89102,2.53242 3.16592,2.53706 0.27495,0.005 1.84961,1.27658 3.49926,2.82657 1.64961,1.54999 3.22427,2.82492 3.49921,2.8332 0.27495,0.008 1.6996,1.14881 3.16593,2.53455 1.46637,1.38572 3.28694,2.79524 4.04575,3.13221 0.7588,0.33698 1.47999,0.7751 1.60262,0.97354 0.1227,0.1985 0.4871,0.36086 0.80984,0.36086 0.32277,0 1.08055,0.44081 1.68397,0.97954 0.60339,0.53873 1.6427,1.2357 2.30952,1.54888 0.66679,0.31316 1.57,0.84713 2.00717,1.18667 0.43709,0.33945 1.04832,0.61726 1.35825,0.61726 0.3099,0 0.89754,0.35566 1.30588,0.79021 0.40827,0.43469 1.29676,1.07069 1.97434,1.4134 0.67756,0.34268 1.83179,1.08603 2.56495,1.65177 0.73316,0.56577 1.78297,1.251845 2.3328,1.524645 0.54989,0.272836 1.29973,0.662598 1.66632,0.866228 0.36656,0.20366 0.92899,0.4515 1.24972,0.5508 0.82287,0.25467 0.72466,1.42937 -0.16669,1.99462 -0.41238,0.26157 -1.40648,0.5814 -2.20905,0.7108 -0.8026,0.12935 -1.92731,0.50453 -2.49945,0.83377 -0.57214,0.32917 -2.91479,0.91986 -5.20596,1.31262 -5.08376,0.87138 -6.24075,1.22183 -6.66774,2.01965 -0.18188,0.33984 -0.33064,0.69336 -0.33064,0.7856 0,0.0923 1.01223,0.6379 2.24946,1.21256 1.23723,0.57465 2.77438,1.3151 3.41591,1.64539 0.64149,0.33024 1.68636,0.71338 2.32189,0.85127 0.63551,0.13792 1.38535,0.37901 1.66628,0.53563 0.281,0.1566 1.78553,0.86965 3.34353,1.58438 1.55798,0.71477 3.11839,1.61731 3.46755,2.00563 0.63084,0.70158 0.62915,0.70607 -0.26037,0.70607 -0.49236,0 -0.97591,-0.2102 -1.07453,-0.46714 -0.0988,-0.25695 -0.71409,-0.56749 -1.36776,-0.69007 -0.6537,-0.12267 -1.72836,-0.51228 -2.3881,-0.86592 -0.65976,-0.35363 -1.50398,-0.64295 -1.876,-0.64295 -0.37204,0 -1.23597,-0.29989 -1.91997,-0.66652 -0.68395,-0.3666 -1.54461,-0.66658 -1.91249,-0.66658 -0.36794,0 -1.2286,-0.2999 -1.91252,-0.66654 -0.68396,-0.36658 -1.71259,-0.66655 -2.2858,-0.66655 -0.66251,0 -1.51328,-0.3744 -2.33527,-1.02761 -1.61182,-1.28094 -1.78645,-1.5566 -1.79282,-2.83011 -0.0107,-1.98824 2.02102,-3.0037 8.30936,-4.15472 6.89212,-1.26156 7.32235,-1.40151 7.34363,-2.38894 0.012,-0.49809 -1.54075,-1.639662 -3.76135,-2.767813 -1.27,-0.64518 -2.68694,-1.47026 -3.14872,-1.83354 -0.46182,-0.36331 -1.04438,-0.66052 -1.29464,-0.66052 -0.25018,0 -0.4549,-0.13169 -0.4549,-0.29282 0,-0.16092 -0.48743,-0.4861 -1.08313,-0.72237 -0.59566,-0.23627 -1.28838,-0.59191 -1.53932,-0.79022 -0.50127,-0.39634 -4.38672,-2.6175 -5.70903,-3.26363 -0.92535,-0.45217 -2.81798,-1.78249 -3.81175,-2.6792 -0.35551,-0.32074 -0.78194,-0.58323 -0.94761,-0.58323 -0.3024,0 -1.04275,-0.54067 -6.18399,-4.51653 -1.52811,-1.18177 -2.90258,-2.14865 -3.05435,-2.14865 -0.30111,0 -1.74806,-1.15624 -2.60641,-2.08287 -0.29715,-0.32076 -0.67466,-0.58324 -0.83874,-0.58324 -0.16408,0 -0.84321,-0.45509 -1.50889,-1.01137 -1.72348,-1.44004 -1.82939,-1.51731 -2.73111,-1.99277 -0.44669,-0.23551 -0.88714,-0.51824 -0.97876,-0.6283 -0.31295,-0.37574 -2.95979,-2.36624 -3.14645,-2.36624 -0.1025,0 -0.44862,-0.23675 -0.76934,-0.52614 -1.2352,-1.11433 -4.51154,-3.47296 -4.82427,-3.47296 -0.18057,0 -0.79991,-0.38129 -1.37624,-0.84727 -0.57634,-0.46604 -1.34783,-1.06998 -1.71446,-1.34217 -0.3665,-0.27216 -1.55501,-1.16564 -2.64098,-1.98543 -1.08598,-0.81981 -2.10431,-1.49054 -2.26301,-1.49054 -0.37488,0 -2.35636,-1.38982 -2.66975,-1.87253 -0.13322,-0.20507 -0.69547,-0.56072 -1.24971,-0.79024 -0.55424,-0.22952 -1.00769,-0.55288 -1.00769,-0.71843 0,-0.16565 -0.33736,-0.44795 -0.74983,-0.62737 -0.41241,-0.1795 -1.42472,-0.84067 -2.24954,-1.46929 -0.8248,-0.62864 -1.61656,-1.15292 -1.75941,-1.16509 -0.14282,-0.0133 -1.04266,-0.64352 -1.99957,-1.40295 -1.63376,-1.29668 -3.45904,-2.28503 -4.21993,-2.28503 -0.18448,0 -0.55376,0.41239 -0.82062,0.91646 -0.59146,1.11723 -1.4212,1.93324 -4.06317,3.99585 -5.36618,4.18945 -7.59196,6.37204 -19.13019,18.75893 -5.98726,6.4277 -11.22806,11.57674 -12.04623,11.83545 -0.8601,0.27196 -2.45485,1.41397 -4.22253,3.02387 -0.62737,0.57138 -2.09752,1.51507 -3.26691,2.09706 -1.1694,0.58197 -2.12619,1.20176 -2.12619,1.37723 0,0.17546 -0.15476,0.31907 -0.34403,0.31907 -0.189183,0 -1.368372,0.67489 -2.620344,1.49964 -1.252018,0.8248 -2.42672,1.49971 -2.61055,1.49971 -0.577566,0 -4.88354,4.415333 -6.188902,6.346113 -2.36639,3.50012 -2.26865,5.40252 0.36716,7.14684 1.089618,0.72113 1.826974,0.86763 5.792222,1.151 6.575734,0.4699 8.000974,0.86435 8.815604,2.43968 0.85191,1.6474 0.34907,3.06576 -1.92689,5.43596 -1.09852,1.144 -2.436756,2.26202 -2.973832,2.48446 -0.537112,0.22249 -0.976562,0.52464 -0.976562,0.67153 0,0.14681 -0.53194,0.44258 -1.182148,0.65713 -0.65014,0.21456 -2.619234,1.35098 -4.375622,2.52533 -1.756404,1.17431 -3.335862,2.13509 -3.509842,2.13509 -0.293686,0 -4.519246,2.60483 -8.443366,5.20496 -0.92469,0.61269 -2.16649,1.28317 -2.75953,1.48985 -1.26947,0.4426 -2.28178,2.03737 -1.63241,2.57176 0.22432,0.18454 1.15761,0.43315 2.07408,0.55246 3.29086,0.42827 10.690606,1.55247 11.997308,1.82264 1.149142,0.23762 0.957542,0.28117 -1.389078,0.31564 -1.497158,0.0218 -2.92184,0.0826 -3.16598,0.13335 -0.24405,0.0511 -2.01284,0.0452 -3.93053,-0.0133 z m 134.124292,-3.08012 c 0.11318,-0.1833 0.27207,-0.33328 0.35294,-0.33328 0.0809,0 0.14697,0.14995 0.14697,0.33328 0,0.18328 -0.15875,0.33329 -0.35294,0.33329 -0.19416,0 -0.26019,-0.14997 -0.14697,-0.33329 z m 6.49854,-8.33151 c -0.40214,-0.25987 -0.34939,-0.32398 0.26966,-0.3281 0.4291,-0.001 0.67839,0.14236 0.56354,0.3281 -0.24768,0.4007 -0.21304,0.4007 -0.83313,0 z m -5.54791,-1.56158 c 0.24103,-0.24104 3.2596,-0.17128 3.51205,0.0816 0.0809,0.0809 -0.72741,0.14742 -1.79663,0.14742 -1.0692,0 -1.84116,-0.10286 -1.71542,-0.2286 z m -4.53319,-1.00988 c -0.50404,-0.0765 -0.91646,-0.27879 -0.91646,-0.44998 0,-0.36211 1.76066,-0.40886 3.35863,-0.0895 0.93926,0.18781 1.00947,0.2608 0.45825,0.47646 -0.69271,0.27097 -1.42188,0.28677 -2.90046,0.0629 z m -4.74892,-1.4061 c -1.35811,-0.23032 -3.7143,-1.22699 -4.00235,-1.69302 -0.49923,-0.80771 5.55082,-1.99832 10.10843,-1.98921 4.79524,0.0107 4.3619,1.14493 -0.53849,1.41098 -1.70348,0.0927 -3.17762,0.2486 -3.27595,0.3469 -0.0982,0.0986 0.0759,0.56666 0.38608,1.0408 0.4922,0.75114 0.49907,0.86209 0.0536,0.86209 -0.28106,0 -0.71067,0.0552 -0.95479,0.12374 -0.24413,0.0681 -1.04367,0.0218 -1.77685,-0.10251 z m 13.67572,-4.32333 c -0.47109,-0.18421 -0.12348,-0.31067 1.24114,-0.45148 1.04256,-0.10773 2.0494,-0.29074 2.23742,-0.40694 0.57204,-0.35353 0.39531,-1.77539 -0.24138,-1.94172 -0.45285,-0.11841 -0.42092,-0.16109 0.14282,-0.19105 0.8023,-0.0427 1.77341,0.7571 1.77341,1.46062 0,0.24851 -0.39517,0.7627 -0.87812,1.14262 -0.9054,0.7122 -2.96744,0.89933 -4.27529,0.38802 z"
         id="path4285-5-3"
         inkscape:connector-curvature="0"
         sodipodi:nodetypes="scssccsccsssssssssssscssssccccsscscssscccssscsssssccsscsssscssccsssscssssssssssscccsccssssssssssccscsccscccscssccsscsssssssscsssssssccscssssssssscssscsscccccsccssscssccsccccsssscscscsccsssssssssccssssscscssssssssssscssssssssssssssssssssssssscscsssssssssscsssssssssssssssssssssssssssscssssssssssssssssccscsssccssssccsssssccccscsscscsccccccssccsscccsss" />
    </g>
  </g>
</svg>
